<svg width="158" height="56" viewBox="0 0 158 56" fill="none" xmlns="http://www.w3.org/2000/svg">
<path fill-rule="evenodd" clip-rule="evenodd" d="M56 28C56 43.464 43.464 56 28 56C12.536 56 0 43.464 0 28C0 12.536 12.536 0 28 0C43.464 0 56 12.536 56 28ZM44.5128 28C44.5128 37.1198 37.1198 44.5128 28 44.5128C18.8802 44.5128 11.4872 37.1198 11.4872 28C11.4872 20.2647 16.8059 13.7716 23.9858 11.9785L28.0001 5.02564L32.0143 11.9785C39.1941 13.7717 44.5128 20.2647 44.5128 28Z" fill="#0D056D"/>
<path d="M40.6398 42.568L47.5004 38.607L37.0674 20.6405L33.0256 27.641L28 18.9363L22.9744 27.641L18.949 20.6689L7.27957 40.8381L14.0676 44.7572L19.2985 35.8974H36.7015L40.6398 42.568Z" fill="#0D056D"/>
<path d="M36.6494 44.8718H14.2661L25.4578 51.3333L36.6494 44.8718Z" fill="#0D056D"/>
<path d="M68.399 42.3077C70.2178 42.7692 72.1047 43 74.0598 43C76.4242 43 78.3793 42.6593 79.9252 41.978C81.4939 41.2967 82.6647 40.3956 83.4376 39.2747C84.2333 38.1319 84.6312 36.8901 84.6312 35.5494C84.6312 34.3407 84.3811 33.3407 83.881 32.5495C83.4035 31.7363 82.767 31.0879 81.9713 30.6044C81.1756 30.0989 80.289 29.7033 79.3114 29.4176C78.3566 29.1099 77.3904 28.8571 76.4128 28.6593C75.458 28.4615 74.5713 28.2747 73.7529 28.0989C72.9572 27.9011 72.3093 27.6593 71.8092 27.3736C71.3317 27.0659 71.093 26.6593 71.093 26.1538C71.093 25.7582 71.2181 25.4066 71.4681 25.0989C71.7182 24.7912 72.1274 24.5495 72.6958 24.3736C73.2641 24.1758 74.0144 24.0769 74.9465 24.0769C75.9922 24.0769 77.0721 24.2308 78.1861 24.5385C79.3 24.8242 80.4254 25.2637 81.5621 25.8571L83.6422 21.011C82.4601 20.3516 81.1074 19.8571 79.5842 19.5275C78.0838 19.1758 76.5492 19 74.9806 19C72.639 19 70.6838 19.3407 69.1152 20.022C67.5465 20.7033 66.3643 21.6044 65.5687 22.7253C64.7957 23.8462 64.4092 25.0989 64.4092 26.4835C64.4092 27.7143 64.6593 28.7363 65.1594 29.5494C65.6596 30.3407 66.3075 30.989 67.1032 31.4945C67.8989 31.978 68.7742 32.3736 69.729 32.6813C70.7066 32.989 71.6728 33.2418 72.6276 33.4396C73.6051 33.6374 74.4918 33.8352 75.2875 34.033C76.0832 34.2308 76.7311 34.4835 77.2312 34.7912C77.7314 35.0989 77.9815 35.5165 77.9815 36.044C77.9815 36.4176 77.8451 36.7473 77.5722 37.033C77.3222 37.2967 76.913 37.5165 76.3446 37.6923C75.7763 37.8462 75.026 37.9231 74.0939 37.9231C72.7072 37.9231 71.309 37.7143 69.8995 37.2967C68.5127 36.8571 67.2851 36.3077 66.2166 35.6484L64 40.4615C65.1367 41.2088 66.6031 41.8242 68.399 42.3077Z" fill="#0D056D"/>
<path d="M95.4228 19.4615L84.8856 42.5385H89.8944L96.1417 27.4286L97.1046 29.6977L98.6966 25.863L100.21 29.5086L101.115 27.4286L107.362 42.5385H112.644L102.073 19.4615H95.4228Z" fill="#0D056D"/>
<path d="M120.558 42.5385L110.362 19.4615H117.659L124.13 34.5038L130.754 19.4615H137.438L127.207 42.5385H120.558Z" fill="#0D056D"/>
<path d="M145.519 33.2747V37.4945H158V42.5385H138.835V19.4615H157.557V24.5055H145.519V28.3956H156.124V33.2747H145.519Z" fill="#0D056D"/>
<path d="M90.6415 33.7665H106.271V38.2308H90.6415V33.7665Z" fill="#0D056D"/>
</svg>
