<svg width="205" height="70" viewBox="0 0 205 70" fill="none" xmlns="http://www.w3.org/2000/svg">
<path d="M93.4754 53.1346C95.7391 53.7115 98.0878 54 100.521 54C103.464 54 105.898 53.5742 107.822 52.7225C109.774 51.8709 111.232 50.7445 112.194 49.3434C113.184 47.9148 113.679 46.3626 113.679 44.6868C113.679 43.1758 113.368 41.9258 112.745 40.9368C112.151 39.9203 111.359 39.1099 110.369 38.5055C109.378 37.8736 108.275 37.3791 107.058 37.022C105.869 36.6374 104.667 36.3214 103.45 36.0742C102.262 35.8269 101.158 35.5934 100.139 35.3736C99.1489 35.1264 98.3424 34.8242 97.7199 34.467C97.1257 34.0824 96.8286 33.5742 96.8286 32.9423C96.8286 32.4478 96.9842 32.0082 97.2955 31.6236C97.6067 31.239 98.1161 30.9368 98.8235 30.717C99.5309 30.4698 100.465 30.3462 101.625 30.3462C102.926 30.3462 104.271 30.5385 105.657 30.9231C107.044 31.2802 108.444 31.8297 109.859 32.5714L112.448 26.5137C110.977 25.6896 109.293 25.0714 107.397 24.6593C105.53 24.2198 103.62 24 101.667 24C98.7527 24 96.3192 24.4258 94.3668 25.2775C92.4143 26.1291 90.9429 27.2555 89.9525 28.6566C88.9904 30.0577 88.5093 31.6236 88.5093 33.3544C88.5093 34.8929 88.8206 36.1703 89.4431 37.1868C90.0657 38.1758 90.8721 38.9863 91.8625 39.6181C92.8529 40.2225 93.9423 40.717 95.1308 41.1016C96.3475 41.4863 97.5501 41.8022 98.7386 42.0494C99.9553 42.2967 101.059 42.544 102.049 42.7912C103.04 43.0385 103.846 43.3544 104.469 43.739C105.091 44.1236 105.402 44.6456 105.402 45.3049C105.402 45.772 105.233 46.1841 104.893 46.5412C104.582 46.8709 104.073 47.1456 103.365 47.3654C102.658 47.5577 101.724 47.6538 100.564 47.6538C98.8376 47.6538 97.0974 47.3929 95.343 46.8709C93.6169 46.3214 92.0889 45.6346 90.7589 44.8104L88 50.8269C89.4148 51.761 91.24 52.5302 93.4754 53.1346Z" fill="#05D8E8"/>
<path d="M127.111 24.5769L113.996 53.4231H120.23L128.006 34.5357L129.205 37.3721L131.186 32.5787L133.07 37.1358L134.196 34.5357L141.972 53.4231H148.546L135.388 24.5769H127.111Z" fill="#05D8E8"/>
<path d="M158.396 53.4231L145.705 24.5769H154.789L162.842 43.3798L171.087 24.5769H179.407L166.673 53.4231H158.396Z" fill="#05D8E8"/>
<path d="M189.465 41.8434V47.1181H205V53.4231H181.146V24.5769H204.448V30.8819H189.465V35.7445H202.666V41.8434H189.465Z" fill="#05D8E8"/>
<path d="M121.16 42.4581H140.614V48.0385H121.16V42.4581Z" fill="#05D8E8"/>
<path fill-rule="evenodd" clip-rule="evenodd" d="M70 35C70 54.33 54.33 70 35 70C15.67 70 0 54.33 0 35C0 15.67 15.67 0 35 0C54.33 0 70 15.67 70 35ZM55.641 35C55.641 46.3997 46.3997 55.641 35 55.641C23.6003 55.641 14.359 46.3997 14.359 35C14.359 25.3309 21.0074 17.2145 29.9823 14.9731L35.0001 6.28205L40.0179 14.9732C48.9926 17.2146 55.641 25.3309 55.641 35Z" fill="#05D8E8"/>
<path d="M50.7998 53.2099L59.3755 48.2587L46.3342 25.8007L41.2821 34.5513L35 23.6704L28.7179 34.5513L23.6863 25.8361L9.09947 51.0477L17.5845 55.9465L24.1231 44.8718H45.8769L50.7998 53.2099Z" fill="#05D8E8"/>
<path d="M45.8118 56.0897H17.8326L31.8222 64.1666L45.8118 56.0897Z" fill="#05D8E8"/>
</svg>
